<?xml version="1.0" encoding="UTF-8"?>
<svg id="Letter" xmlns="http://www.w3.org/2000/svg" viewBox="0 0 1024 1024">
  <defs>
    <style>
      .cls-1 {
        fill: #000;
        stroke-width: 0px;
      }

      .cls-2, .cls-3, .cls-4, .cls-5 {
        fill: none;
        stroke: #000;
        stroke-miterlimit: 10;
      }

      .cls-2, .cls-3, .cls-5 {
        stroke-linecap: round;
      }

      .cls-2, .cls-4 {
        stroke-width: 66px;
      }

      .cls-3 {
        stroke-width: 20px;
      }

      .cls-5 {
        stroke-width: 30px;
      }
    </style>
  </defs>
  <g id="Original">
    <g id="Letter-2" data-name="Letter">
      <path class="cls-2" d="M171.46,188.68C256.99,98.54,377.93,42.34,512,42.34s251.12,54.42,336.4,142.03"/>
      <path class="cls-2" d="M171.46,837.66c85.53,90.13,206.47,146.34,340.54,146.34s251.12-54.42,336.4-142.03"/>
      <path class="cls-4" d="M188.73,854.96L829.68,166.17,188.73,854.96Z"/>
      <circle class="cls-1" cx="509.21" cy="510.56" r="68.12"/>
    </g>
    <g id="Clock_Stripes" data-name="Clock Stripes">
      <line class="cls-5" x1="509.21" y1="123.58" x2="509.21" y2="171.94"/>
      <line class="cls-5" x1="509.93" y1="849.18" x2="509.93" y2="897.55"/>
      <line class="cls-5" x1="848.4" y1="516.06" x2="896.76" y2="516.06"/>
      <line class="cls-5" x1="123.1" y1="516.06" x2="171.46" y2="516.06"/>
      <line class="cls-3" x1="178.56" y1="709.2" x2="202.95" y2="695.12"/>
      <line class="cls-3" x1="820.18" y1="338.76" x2="844.58" y2="324.68"/>
      <line class="cls-3" x1="317.71" y1="849.86" x2="331.79" y2="825.46"/>
      <line class="cls-3" x1="695.93" y1="213.07" x2="710.01" y2="188.68"/>
      <line class="cls-3" x1="710.01" y1="843.24" x2="695.93" y2="818.84"/>
      <line class="cls-3" x1="298.31" y1="226.92" x2="284.22" y2="202.52"/>
      <line class="cls-3" x1="839.18" y1="709.2" x2="814.78" y2="695.12"/>
      <line class="cls-3" x1="183.66" y1="359.41" x2="159.27" y2="345.33"/>
    </g>
  </g>
</svg>
